<svg xmlns="http://www.w3.org/2000/svg" version="1.1" xmlns:xlink="http://www.w3.org/1999/xlink" xmlns:svgjs="http://svgjs.dev/svgjs" viewBox="0 0 4.0314532681933555 1.986093941823343"><g transform="matrix(0.7984116838760732,0,0,0.7984116838760732,0.60653360463175,0.6583404176497214)"><rect width="4.532915535694747" height="4.532915535694747" x="-0.5014622675013916" y="-1.8472422678473737" fill="#ffffff"></rect><g transform="matrix(1,0,0,1,0,0)" clip-path="url(#SvgjsClipPath6370)"><g clip-path="url(#SvgjsClipPath6365182721f7-0813-4788-ab70-273c9e36f69a)"><path d=" M 2.894977757128684 -0.11986805643764462 C 2.891903058479044 -0.12054887463176794 2.8887758286773346 -0.12096583860532895 2.8856301627680865 -0.12111440235239096 C 2.8831374709385935 -0.12111440235239096 2.881501641925489 -0.12111440235239096 2.881501641925489 -0.12111440235239096 L 2.881501641925489 -0.1172195713688084 C 2.8859299489371932 -0.11840039100368643 2.890431936320176 -0.11928517465120886 2.894977757128684 -0.11986805643764462 Z" fill="#911d80" transform="matrix(1,0,0,1,0,0)" fill-rule="nonzero"></path></g><g clip-path="url(#SvgjsClipPath6365182721f7-0813-4788-ab70-273c9e36f69a)"><path d=" M 2.9154645681023275 -0.16380174993245444 L 2.9111023574007153 -0.16442492288982763 C 2.9113453391090633 -0.1633486141574145 2.9115016331136836 -0.16225455612507195 2.9115697371187452 -0.16115326486361822 C 2.9126602897941485 -0.1621659209193499 2.9141403255679097 -0.16271119725705133 2.9154645681023275 -0.16380174993245444 Z" fill="#911d80" transform="matrix(1,0,0,1,0,0)" fill-rule="nonzero"></path></g><g clip-path="url(#SvgjsClipPath6365182721f7-0813-4788-ab70-273c9e36f69a)"><path d=" M 2.8813458486861454 -0.11714167474913692 C 2.883552942267523 -0.10282577456329031 2.881940662919635 -0.08818090381997148 2.876672051505847 -0.07468801702808842 C 2.8698171489747413 -0.07531118998546132 2.855873654053516 -0.07609015618217799 2.8489408549027395 -0.07663543251987942 C 2.8416964692732765 -0.06884577055271451 2.8482397853256947 -0.06105610858554966 2.8478503022273367 -0.053266446618384755 C 2.841306986174918 -0.053266446618384755 2.834529980263485 -0.05443489591345968 2.834529980263485 -0.05030637507086211 C 2.831820372547609 -0.0463698770681808 2.8323121035374634 -0.04105918237775763 2.8356984295585597 -0.037687122684055 C 2.8391683261830316 -0.03362688785485657 2.843924333263361 -0.03087775081420402 2.849174544761755 -0.029897460716890145 C 2.856938307129788 -0.0401937703681044 2.866394391424694 -0.049096713241860435 2.8771394312238763 -0.05622651816590746 C 2.8879670613582356 -0.06362669703471385 2.8984052083942364 -0.06791101111665465 2.905883283882715 -0.0737532575920285 C 2.9201383652826265 -0.08395771476901434 2.922942643590806 -0.09657696715582173 2.8813458486861454 -0.11714167474913692 Z" fill="#911d80" transform="matrix(1,0,0,1,0,0)" fill-rule="nonzero"></path></g><g clip-path="url(#SvgjsClipPath6365182721f7-0813-4788-ab70-273c9e36f69a)"><path d=" M 2.9474021821677034 -0.1384853485391688 L 2.90611697374173 -0.14565183754896022 C 2.900352623886028 -0.13739479586376538 2.8935756179745944 -0.12960513389660078 2.896535689522117 -0.11986805643764462 C 2.914773574380972 -0.12175585564943242 2.9322546663094755 -0.12815398883612844 2.9474021821677034 -0.1384853485391688 Z" fill="#911d80" transform="matrix(1,0,0,1,0,0)" fill-rule="nonzero"></path></g><g clip-path="url(#SvgjsClipPath6365182721f7-0813-4788-ab70-273c9e36f69a)"><path d=" M 2.719165086529773 -0.15866057303412578 C 2.7186198101920716 -0.1608416783849318 2.719165086529773 -0.1625554040177081 2.726954748496938 -0.15990691894887188 C 2.723994676949415 -0.15936164261117045 2.7215019851199225 -0.15936164261117045 2.719165086529773 -0.15866057303412578 C 2.719165086529773 -0.1563236744439763 2.720489329064191 -0.15336360289645362 2.7171397744183103 -0.15087091106696063 C 2.7469905341512844 -0.16164062368572543 2.7781828356094405 -0.1682460522298054 2.809836751827572 -0.1705008592242162 C 2.8141210659095126 -0.17486306992582845 2.8181716901324383 -0.17930317724711248 2.8219107278766775 -0.18358749132905297 C 2.743745639280094 -0.18532653261888135 2.6671990131405168 -0.16117121088181288 2.60418967589442 -0.1148826727786589 C 2.6137934309214805 -0.119646541574733 2.6236488918255967 -0.12388516987914183 2.633712494749974 -0.1275798217851372 C 2.6432937789695874 -0.131708342627735 2.6520182003728117 -0.13536948375230262 2.6610542082547233 -0.1397316944539146 C 2.6800326829808725 -0.14718618291159954 2.699437138378306 -0.15350693714963773 2.7191650865297725 -0.15866057303412523 Z" fill="#911d80" transform="matrix(1,0,0,1,0,0)" fill-rule="nonzero"></path></g><g clip-path="url(#SvgjsClipPath6365182721f7-0813-4788-ab70-273c9e36f69a)"><path d=" M 2.8282982506897527 -0.20719016708956262 L 2.837412155191336 -0.20765754680759255 C 2.8294666999848275 -0.2108513082141302 2.828843527027454 -0.2096828589190553 2.8282982506897527 -0.20719016708956262 Z" fill="#911d80" transform="matrix(1,0,0,1,0,0)" fill-rule="nonzero"></path></g><g clip-path="url(#SvgjsClipPath6365182721f7-0813-4788-ab70-273c9e36f69a)"><path d=" M 2.517958117917905 0.8261084928548562 C 2.5271301210798787 0.8323412776214058 2.5371517836539565 0.8372209353145433 2.5477146266324744 0.8405972641137828 C 2.5574034539186963 0.8451793242415392 2.567495036668006 0.8488561024525282 2.5778606184454027 0.8515806874874853 C 2.58814297224206 0.8532944131202614 2.5982695327993746 0.8552418286120528 2.609019266314062 0.8567218643858142 L 2.623663830812332 0.858980866356292 C 2.6286492144713174 0.8596040393136651 2.6339461846089893 0.858980866356292 2.6392431547466617 0.8599935224120235 C 2.564473420187004 0.8370598948450215 2.4947773160299236 0.800043754549152 2.433907665292196 0.7509382548717153 C 2.4404509813446142 0.7574815709241337 2.4463711244396595 0.7648817497929404 2.4532260269707646 0.7713471692256871 L 2.4745697007607963 0.7903539444255695 C 2.4883720717263595 0.8030516772770336 2.5028563663959984 0.8149875682166462 2.517958117917905 0.8261084928548567 Z" fill="#911d80" transform="matrix(1,0,0,1,0,0)" fill-rule="nonzero"></path></g><g clip-path="url(#SvgjsClipPath6365182721f7-0813-4788-ab70-273c9e36f69a)"><path d=" M 2.823780246748797 0.8457384410121117 C 2.812388897755464 0.8436920569462781 2.8008954190170803 0.8422618729403707 2.7893499408539286 0.8414541269301711 C 2.7839535539218985 0.8411442322902077 2.778543830894255 0.8411442322902077 2.773147443962225 0.8414541269301711 C 2.7679837227180575 0.8407294080045357 2.7627813835973583 0.8403132208748799 2.7575681200278956 0.8402077810154248 C 2.747285033805805 0.8401856411043614 2.7370099782465074 0.8407839354787 2.7267989552575944 0.8419994032678725 C 2.7169060845592954 0.8415320235498426 2.7068574206216525 0.8419994032678725 2.6964192735856516 0.8419994032678725 L 2.725318919483833 0.8476079598842311 L 2.754608048480373 0.8501006517137238 C 2.7738810870083483 0.8517378449045337 2.7932397677085006 0.8521281408863915 2.8125631335160803 0.8512691010087986 C 2.8165019148854276 0.8498618617305952 2.8202657026842197 0.8480061052464686 2.823780246748797 0.8457384410121115 Z" fill="#911d80" transform="matrix(1,0,0,1,0,0)" fill-rule="nonzero"></path></g><g clip-path="url(#SvgjsClipPath6365182721f7-0813-4788-ab70-273c9e36f69a)"><path d=" M 2.7676167839655386 0.8665368384644417 C 2.7459806460678324 0.8635252834020882 2.7241811594149317 0.8618343924325912 2.7023394166806973 0.861473558185785 C 2.6918233730250245 0.8608503852284116 2.6809178462709937 0.8619409379038147 2.670635492474336 0.8614735581857847 C 2.6603531386776784 0.8610061784677548 2.649369715303976 0.8604609021300532 2.6386199817892884 0.8601493156513668 C 2.6499149916416775 0.8623304210021728 2.6610542082547233 0.8650568026906805 2.6718818383890826 0.8679389776185314 C 2.6827094685234414 0.8708211525463824 2.6944718580938605 0.8698084964906511 2.7053773848478913 0.8706653593070391 C 2.7105964583658917 0.8706653593070391 2.7157376352642206 0.8715222221234274 2.720956708782221 0.8717559119824422 L 2.7370034124345803 0.8704316694480242 C 2.747753145949268 0.8691074269136062 2.7580354997459255 0.8683284607168898 2.7676167839655386 0.8665368384644417 Z" fill="#911d80" transform="matrix(1,0,0,1,0,0)" fill-rule="nonzero"></path></g><g clip-path="url(#SvgjsClipPath6365182721f7-0813-4788-ab70-273c9e36f69a)"><path d=" M 2.106274482953242 0.0028970161648737003 C 2.116400831411799 -0.03131809133059449 2.1306019145722845 -0.0641924219617726 2.1485723474349467 -0.0950190347623889 C 2.149429210251335 -0.10452242236232984 2.150987142644768 -0.11729746798848042 2.153791420952947 -0.13490210403427294 C 2.1515324189824696 -0.13194203248675027 2.149429210251335 -0.1295272372769293 2.1473260015202005 -0.1266450623490781 C 2.1400037192710655 -0.11433739644095775 2.1326554714820403 -0.10189990283338465 2.125281258153124 -0.08933258152635853 C 2.118660045481034 -0.07640174266086472 2.1122725226679586 -0.06323721393635623 2.105807103235212 -0.05038427169053411 C 2.0993416838024648 -0.03753132944471205 2.0930320576090615 -0.024133110861188578 2.0871119145140162 -0.011435961854709742 C 2.081191771418971 0.0012611871517688167 2.076517974238672 0.015672061791023706 2.0715325905796864 0.02930397023356246 C 2.068728312271507 0.04106635980398138 2.065612447484641 0.052672956135057125 2.0637429286125215 0.0631889997907294 C 2.0620374613791013 0.07372832742298868 2.0610743665544407 0.08437442967396691 2.0608607536846706 0.0950487172364336 L 2.0710652108616565 0.07167973133493893 C 2.074570558746881 0.06389006936777408 2.0788548728288214 0.05610040740060945 2.0828276004320756 0.048310745433444324 C 2.090227779300882 0.03335459445648825 2.0983290277467335 0.01824265024018845 2.106274482953242 0.0028970161648737003 Z" fill="#911d80" transform="matrix(1,0,0,1,0,0)" fill-rule="nonzero"></path></g><g clip-path="url(#SvgjsClipPath6365182721f7-0813-4788-ab70-273c9e36f69a)"><path d=" M 2.1485723474349467 -0.0950190347623889 C 2.1461575522251257 -0.053110653379041806 2.1563620094021116 -0.06861208069370012 2.161814772779127 -0.08637250997883586 C 2.1672675361561424 -0.10413293926397163 2.1692928482676055 -0.12532081981466 2.1485723474349467 -0.0950190347623889 Z" fill="#911d80" transform="matrix(1,0,0,1,0,0)" fill-rule="nonzero"></path></g><g clip-path="url(#SvgjsClipPath6365182721f7-0813-4788-ab70-273c9e36f69a)"><path d=" M 2.243216740336 0.27631415121236036 L 2.24228198089994 0.282390087546749 C 2.24228198089994 0.28807654078277933 2.24228198089994 0.29368509739913795 2.24228198089994 0.2996831371138551 C 2.242048291040925 0.2918934751466902 2.2429051538573135 0.28410381317952504 2.243216740336 0.27631415121236036 Z" fill="#911d80" transform="matrix(1,0,0,1,0,0)" fill-rule="nonzero"></path></g><g clip-path="url(#SvgjsClipPath6365182721f7-0813-4788-ab70-273c9e36f69a)"><path d=" M 2.2379976668179995 0.7960403976615998 C 2.2144142593274063 0.7631630551394467 2.192648530649054 0.7290192059701798 2.1727981961528307 0.6937621360327274 C 2.206272959297282 0.7645839807181519 2.2553238358867693 0.8269227983598405 2.3162837695880065 0.876118122684055 C 2.3094288670569014 0.8683284607168898 2.3056119326929903 0.8586692798776053 2.299068616640572 0.8510354111497839 C 2.2747037064664015 0.8377139598449536 2.2537902904524336 0.8188812153221713 2.2379976668179995 0.7960403976615998 Z" fill="#911d80" transform="matrix(1,0,0,1,0,0)" fill-rule="nonzero"></path></g><g clip-path="url(#SvgjsClipPath6365182721f7-0813-4788-ab70-273c9e36f69a)"><path d=" M 2.328357745637112 0.013568853059889474 C 2.2766286007168803 0.0940702491281874 2.2470704326967215 0.18680228352597672 2.2426714639982985 0.282390087546749 C 2.2254557380836997 0.3687720845040008 2.2303322154322975 0.4581027190107284 2.2568486487785386 0.5420974175320253 C 2.280776261980584 0.6186735773517122 2.325550726336806 0.687076012054953 2.3861570374334753 0.7396432450193263 C 2.4439320233559725 0.7922338277340414 2.509994010764426 0.8349240841390261 2.5816775528093125 0.8659915621267399 C 2.6509275754128647 0.8975980022589544 2.730084387973144 0.8995396375474928 2.800800743945661 0.8713664288840842 C 2.7898450566371285 0.8690995244865426 2.7787641377637518 0.8674868085941733 2.767616783965538 0.866536838464442 C 2.783054984409241 0.8626818285145293 2.7981218150939275 0.8574683922914547 2.812641030135752 0.8509575145301121 C 2.8963614028166487 0.8470061022901686 2.977456343792812 0.8204948122597934 3.0473435452064286 0.7742293441535385 L 3.0601964874522505 0.7660501990880154 C 3.0645586981538626 0.7627785410618061 3.067986149419416 0.7595847796552685 3.072348360121028 0.7565468114880743 C 3.0801380220881924 0.7500034954356557 3.0887845468717456 0.7442391455799539 3.096262622360224 0.7374621396685205 C 3.1037406978487025 0.7306851337570869 3.1112187733371806 0.7232070582686086 3.1187747454453305 0.7164300523571753 C 3.1263307175534805 0.7096530464457419 3.1324845505075407 0.7008507284228457 3.1396510395173323 0.6938400326523974 L 3.150244979792676 0.6823892295606647 C 3.1535166378188855 0.6786501918164257 3.15608722626805 0.6741321878754701 3.1593588842942593 0.6703152535115594 C 3.165279027389305 0.6618245219673498 3.1719781366810667 0.6541127566198565 3.1776645899170965 0.6455441284559752 C 3.1833510431531273 0.6369755002920939 3.1881806335727694 0.6279394924101825 3.1938670868087997 0.6191371743872862 C 3.1993390079936836 0.610363040491593 3.2041056778502686 0.601168316669875 3.2081221682087113 0.5916396676431942 C 3.210737862453692 0.5866596052864502 3.2128765644999726 0.581443258832107 3.214509691021787 0.5760603437088644 C 3.2154444504578468 0.5701402006138192 3.2159897267955477 0.5647653338564755 3.2166128997529215 0.5593904670991318 C 3.2175519068998186 0.5482687929871757 3.2194280869886835 0.5372462349650947 3.2222214563692804 0.5264401969780239 C 3.224792044818444 0.5145220141682622 3.2280637028446533 0.5030712110765297 3.230400601434803 0.4914646147454541 C 3.2327375000249523 0.4798580184143787 3.233672259461012 0.4680956288439595 3.2353859850937883 0.4561774460341973 C 3.2343716504914752 0.45622027434219203 3.2333714184285283 0.45643084951333845 3.2324259135462654 0.4568006189915702 C 3.240438887952756 0.36026975012629914 3.2094046834621626 0.2645575697308067 3.146272252189422 0.19109524929157695 C 3.1201261929949498 0.15523618137097828 3.0893791934416663 0.1229701648039892 3.0548216206949066 0.09512661385610588 C 3.0497142673868725 0.09133448327621696 3.046685307136843 0.08536310449758805 3.0466424756293837 0.07900201358407472 C 3.046655141424153 0.07350569559766046 3.045145260169659 0.06811326254589506 3.042280264927771 0.06342268964974496 C 3.0159296191503 0.021029786156768593 2.976624224645014 -0.011747471248611974 2.930187029220269 -0.030053253956233372 C 2.883749833795524 -0.04835903666385477 2.9318228582333736 -0.037842915923398224 2.9328355142891054 -0.04111457394960738 C 2.924881636701356 -0.0418824321072655 2.9170412994039348 -0.043555037397382146 2.90946652838761 -0.04609995760859281 C 2.9286070200101153 -0.06179355321882091 2.9504699695898555 -0.0738340182047649 2.9739649294757355 -0.08162081617886457 C 2.9904011162264537 -0.0908905139197908 2.994373843829708 -0.10140655757546338 2.9540233948397936 -0.12835878798185388 L 2.9540233948397936 -0.12835878798185388 C 2.959164571738122 -0.12835878798185388 2.9639941621577646 -0.12835878798185388 2.9684342694790486 -0.12835878798185388 C 2.9689653534435467 -0.1281570328874154 2.9695125905478754 -0.12800067942903579 2.970070098492153 -0.12789140826382392 L 2.970070098492153 -0.12874827108021264 C 2.988738894072976 -0.12914480830149672 3.0071938235712294 -0.13280943001614987 3.024597732262307 -0.1395759012145714 C 3.0110141330463045 -0.14511667730770295 2.997030713373503 -0.14962157787268374 2.9827672474986318 -0.15305201641776692 C 2.986923938713524 -0.1568414517460544 2.9894623319267106 -0.16208560475791203 2.989855839888752 -0.16769658091603704 C 2.991353165205828 -0.1685990685152059 2.992947035998376 -0.16933068133801432 2.994607533688723 -0.16987768626684302 L 3.006525716498485 -0.16652813162096214 C 3.009457572045264 -0.1685856639547543 3.0120805999706537 -0.17105131020462125 3.01431537846565 -0.17385041387009736 C 3.037483447460692 -0.17383697171826232 3.060631375572304 -0.17248450850275204 3.083643369973419 -0.16979978964717127 C 3.1041301809470605 -0.16645023500129066 3.1192421251633604 -0.16598285528326073 3.1170610198125543 -0.17603151922090335 C 3.1145683279830614 -0.18171797245693372 3.1052986302421353 -0.18670335611591915 3.092523584615985 -0.1916108431552331 C 3.0797485389898345 -0.1965183301945468 3.062455489422729 -0.19854364230600957 3.045084543235951 -0.20259426652893536 C 3.0435011346334777 -0.20482200118508953 3.041756782779813 -0.20693084447086352 3.0398654697179506 -0.2089038927223386 C 3.0848897158881634 -0.19573936399783012 3.0489793742195337 -0.23460977721398277 3.077255847160342 -0.22783277130254925 L 3.104987043763449 -0.21762831412556344 L 3.131783480930496 -0.20547644145678629 L 3.1589694011959013 -0.1934024654076806 C 3.1676503074473366 -0.18891251599479503 3.1760760303279705 -0.18394550034602636 3.184207905969515 -0.1785242110503958 C 3.249378322751251 -0.13891957664246116 3.307961779576641 -0.08937726344557412 3.35783947121762 -0.03168908296933792 C 3.408061151546364 0.025719577723296527 3.4498204680774496 0.09001108828717364 3.4818508897348845 0.15923553184587247 C 3.484655168043064 0.16601253775730623 3.4872257564922284 0.17247795719005327 3.490030034800408 0.17902127324247152 C 3.49392486578399 0.18821307436372603 3.4974302136692144 0.1971711856259658 3.50101345817411 0.20651877998656376 C 3.504596702679006 0.21586637434716172 3.5066999114101405 0.224902382229073 3.508803120141275 0.2341720799699989 C 3.514711247148807 0.25239244547402384 3.519216437732041 0.27103820534451617 3.5222792353444703 0.28994605965489917 C 3.524771927173963 0.30879704161543853 3.5274983088624707 0.3275701269563057 3.5292899311149184 0.34649900553651636 C 3.5292899311149184 0.36573947059541345 3.5298352074526202 0.3846683491756241 3.5292899311149184 0.4038309176148497 C 3.526485652806739 0.39892343057553603 3.523915064357575 0.39401594353622205 3.5215002691477535 0.38895266325756483 C 3.5224350285838133 0.4194881381688512 3.5176833347838428 0.4497899232211223 3.5162811956297535 0.48016960489306537 C 3.514956953095335 0.4957489288273952 3.5118410883084694 0.5105492865650084 3.5103610525347078 0.5258170240206516 C 3.508881016760946 0.5410847614762946 3.5075567742265283 0.556975671889311 3.504363012819991 0.5715423397679092 C 3.494161379888614 0.6485997219927999 3.469980708440926 0.7231479929188614 3.4330097092007597 0.7915223937206456 C 3.3945216593798304 0.8641103450171302 3.3422982601544 0.9285297863109118 3.279241781968926 0.9812006626211095 C 3.1395393480688734 1.0948071929087209 2.9655811085428123 1.1579349857313685 2.785533006490017 1.1603628878659014 C 2.8611692518114036 1.155688056309366 2.935981593758027 1.1420382686490593 3.008395235370603 1.1197008523973007 L 3.033400050285203 1.1137807093022554 L 3.057470105763742 1.1059910473350905 C 3.073049429698072 1.1003045940990601 3.0891740299701036 1.0947739341023732 3.1042080775667316 1.088620101148313 C 3.087849787435685 1.093917071285985 3.071880980402997 1.0994477312826718 3.0559121733703094 1.1049783912793592 L 3.032543187468815 1.1127680532465236 L 3.0083952353706036 1.1195450591579572 C 2.9922706350985724 1.123128303662853 2.9763018280658846 1.1267894447874207 2.960177227793853 1.13006110281363 C 2.944052627521822 1.133332760839839 2.9275385441514326 1.1343454168955707 2.9113360472597294 1.1362928323873618 L 2.8873438884008618 1.1393308005545562 C 2.8790089500959954 1.1398760768922576 2.871063494889487 1.140031870131601 2.8631180396829787 1.140421353229959 L 2.8155232050636014 1.1436930112561683 C 2.799943881129272 1.1436930112561683 2.7843645571949422 1.1436930112561683 2.7687852332606124 1.1442382875938697 C 2.7532059093262826 1.1447835639315715 2.7383276549689977 1.1461078064659898 2.723916780329743 1.145328840269273 C 2.709505905690488 1.1445498740725566 2.694393961474188 1.145328840269273 2.6799051902152615 1.1467309794233627 C 2.672894494444813 1.1467309794233627 2.665572212195678 1.147821532098766 2.6583278265662145 1.1482889118167954 C 2.6510834409367514 1.1487562915348253 2.644540124884333 1.1482889118167954 2.637373635874541 1.1494573611118706 C 2.6274028685565702 1.1432256315381384 2.62833762799263 1.1393308005545562 2.6177436877172857 1.1366044188660482 L 2.590246180973194 1.1288147568988833 C 2.581132276471611 1.125776788731689 2.572252061829043 1.1220377509874502 2.5633718471864753 1.1185324031022255 C 2.5455335212816674 1.1117553971907923 2.527928885235875 1.1055236676170601 2.5107137322884405 1.0979676955089106 C 2.493498579341006 1.0904117234007606 2.4773739790689753 1.0828557512926107 2.4607819990789137 1.076390331859864 C 2.4441900190888526 1.0699249124271173 2.4284549019151798 1.0623689403189673 2.4118629219251186 1.0572277634206384 C 2.409759713193984 1.0604215248271762 2.3813274470138324 1.042271612443682 2.386312830672818 1.0547350715911454 C 2.325582588015142 1.0157903353461877 2.269360803931125 0.970227699917504 2.2186793051394305 0.9188833668837894 C 2.196400871913339 0.8986302457691612 2.1746677150249494 0.8780655381758459 2.1485723474349467 0.8584355900185904 C 2.0675106186577175 0.7566932350215761 2.0119571069962285 0.6370395175968314 1.986547378517918 0.509458733889605 C 1.9728395530995528 0.4430487379247424 1.9670866518018155 0.375242951265501 1.969410122190155 0.3074727990810193 C 1.969877501908185 0.2902576461335853 1.9722144004983344 0.27265301008779275 1.9736944362720956 0.25528206390101493 C 1.975174472045857 0.23791111771423712 1.9764208179606035 0.21999489518975812 1.9801598557048425 0.20239025914396558 C 1.9860627373203403 0.16666317639436007 1.9943645208822938 0.13137409015608792 2.005008877380099 0.09676244286920854 C 2.028825453472387 0.023347141237796187 2.0639934915226967 -0.04588500541729729 2.1092345545007642 -0.1084172533459124 C 2.0560393354032858 -0.011909100193112976 2.0199842365293152 0.09309346845739785 2.0026719787899494 0.2019228794259348 C 1.97417313664095 0.29551385990637347 1.9734425301568135 0.3953634127383874 2.0005687700588144 0.4893614060143199 L 2.0184849925832937 0.5438890397844732 C 1.9908736487021144 0.4318988993640198 1.9855798856910452 0.3155684571957713 2.002905668648964 0.20153339632757716 C 2.011420519267289 0.17137692507868058 2.021641438532772 0.14172845698033198 2.033519040179922 0.11273124990189787 L 2.0519805390421024 0.06887545302676007 C 2.0579785787568197 0.054308785148161676 2.0659240339633276 0.04067687670562348 2.0726231432550897 0.026577588545055042 C 2.0723170231499095 0.027797595794001095 2.0719266020696474 0.028994887106804534 2.071454693960015 0.03016083304995093 L 2.0586017517141926 0.064902725423506 L 2.0486309843962216 0.10050148061344955 C 2.0412961454408425 0.1239935214544527 2.035596071600733 0.14796506486422817 2.031571624688131 0.17224426733103776 C 2.027988380183235 0.18369507042277022 2.0247167221570255 0.19444480393745778 2.0213671675111446 0.20550612393083179 C 2.018010319602162 0.21637507432640612 2.0154075820113295 0.22746273646335335 2.0135775055439797 0.23869008391095414 C 2.0092152948423676 0.26081272389770205 2.005787843576815 0.2828574672647789 2.003139358507979 0.304045347815467 C 1.9996690967489694 0.3447788482511466 2.0020033520565277 0.3857987954536305 2.0100721576587555 0.42587566098192564 C 2.012253263009562 0.43506746210318015 2.014434368360368 0.44425926322443465 2.0171607500488755 0.45290578800798764 C 2.0214252096331955 0.47133425683231467 2.02662504670421 0.48953368658086405 2.0327400739832053 0.507433421778141 C 2.025581973915833 0.4736909072993096 2.0205606435648567 0.43953025055924566 2.0177060263865774 0.4051551601492672 C 2.0160463595072176 0.3879139312976275 2.015318265879231 0.37059570428908617 2.015524921035771 0.35327601144794873 C 2.015524921035771 0.3361387551201864 2.0147459548390545 0.3186899123137371 2.015524921035771 0.3013189661269593 L 2.0209776844127862 0.23689846165850625 C 2.0227693066652344 0.21532109800945942 2.02775469032422 0.19405532083909927 2.0315716246881306 0.1725558538097245 C 2.0393869753290748 0.14644741880947337 2.049071170752708 0.12093529108054729 2.060549167205984 0.09621716653150847 C 2.060155343737243 0.0992119836400901 2.0600250164151177 0.10223557751340528 2.0601596841076257 0.10525317441342003 C 2.05820867885753 0.12416194790922791 2.061411826498935 0.1432462477223081 2.069429381848552 0.16048187776061856 C 2.0781538032517766 0.1786317901441128 2.090227779300882 0.18930362703912884 2.0998869601401666 0.17536013211790363 C 2.1133434429362628 0.13224224698442755 2.129820405443705 0.0901257772576643 2.1491955203923214 0.049323401489173746 C 2.158662780074359 0.02861259800075705 2.169299848907831 0.008456782974007426 2.181055237838025 -0.011046478756352618 C 2.18650800121504 -0.020861452834979144 2.191804971352712 -0.03052063367426361 2.1976472178280857 -0.03955664155617483 C 2.203489464303459 -0.048592649438086055 2.2098769871165342 -0.05731707084131088 2.215719233591908 -0.06549621590683369 C 2.234641259683761 -0.09362794962791032 2.2554621179057013 -0.1204348045886581 2.2780365293292264 -0.14572973416863086 C 2.2844267986989357 -0.15320564768651784 2.2913239597162187 -0.16023294381733408 2.2986791335422136 -0.16676182147997656 C 2.3038203104405426 -0.17143561866027557 2.30701407184708 -0.17392831048976856 2.3074035549454384 -0.1736167240110821 C 2.311999455506066 -0.172058791617649 2.301717101709408 -0.15936164261117045 2.287072537211138 -0.1379400722014671 C 2.272427972712868 -0.11651850179176373 2.2504611259654634 -0.0890209950476718 2.233245973018029 -0.05895289985441543 C 2.2086883607602483 -0.022695708318406393 2.1891413114086156 0.01671282013314318 2.175135094742979 0.05820361613174452 C 2.1833921364281736 0.044649604308877267 2.19312921388713 0.03218614516141366 2.2025547048673992 0.019255306295919872 C 2.1971592688616695 0.032771868173434804 2.1929880442481235 0.046745470628814234 2.1900912457199357 0.061007894439923716 C 2.1846384823429204 0.07588614879720851 2.1763814406577255 0.09216654230858295 2.169370744887277 0.10774586624291299 C 2.163450276207653 0.12096886845940863 2.1597398352078487 0.13507380729554336 2.1583873215135747 0.14949845438691656 C 2.15796849373855 0.1588096681687693 2.1570584336103993 0.16809228147591054 2.1556609398250672 0.17730754760969436 C 2.154726180389007 0.18688883182930816 2.153635627713604 0.1964701160489205 2.1528566615168874 0.20605140026853352 C 2.1510650392644397 0.22498027884874416 2.1460017589857823 0.24351967433059662 2.1444438265923496 0.2630717258681804 C 2.1428858941989164 0.28262377740576394 2.1402374091300804 0.3020200357040045 2.1390689598350057 0.32196157033994655 C 2.139366104619452 0.3419345740384855 2.1407181968495803 0.3618779344328751 2.1431195840579313 0.38170827762809945 C 2.147871277857902 0.4064794026836853 2.15675149250047 0.4333537364704041 2.164696947706978 0.46007227701777964 C 2.1704612975626802 0.4730031158832735 2.175758267700352 0.4865571277061401 2.181366824316711 0.49987744966999204 C 2.1867717874287553 0.5132542489857932 2.1930427711790363 0.5262645887166669 2.200139909657578 0.5388257595058163 C 2.207929571624743 0.5372678271123834 2.2105001600739076 0.5649211270958187 2.215719233591908 0.5544050834401459 C 2.2212332152915137 0.5795527969981151 2.2297322577274725 0.6039515865142678 2.241035634985194 0.6270826295937938 C 2.248665793071876 0.6454256525477179 2.262897033349506 0.6602405960398599 2.2809187042570778 0.6686015278787828 L 2.282944016368541 0.6717173926656487 C 2.2852031577254044 0.6757920177192153 2.2880072948929358 0.6795396029057296 2.291278954673407 0.6828566092786946 C 2.3003748738054868 0.6997061514338933 2.310440440688098 0.7160139303367282 2.321424946486334 0.7316977898128164 C 2.333421025915769 0.7450960083963417 2.345572898584546 0.7571699844454473 2.3579584611123385 0.7685428909175079 C 2.3845969699787126 0.7899922485469449 2.4130596993694597 0.8090716605561271 2.4430215697937787 0.8255632165171546 L 2.4570429613346754 0.8369361229892155 L 2.472622285269005 0.8473742700252164 C 2.4827488458263196 0.8543070691759932 2.492563819904947 0.8618630412841431 2.5024566906032466 0.8691074269136064 C 2.4885666199945207 0.8560469968920515 2.473405195519442 0.8444084507373438 2.457198754574019 0.8343655345400512 C 2.4526028540133917 0.8312496697531854 2.447851160213421 0.8284453914450057 2.443333156272465 0.8255632165171548 C 2.4313370768430316 0.8155145525795123 2.418172548118523 0.8071796142746458 2.406799641646462 0.7965856739993017 C 2.3954267351744014 0.7859917337239574 2.3834306557449674 0.7759430697863147 2.3716682661745487 0.7658165092290005 C 2.3610743258992044 0.7546772926159547 2.35001300590583 0.743538076002909 2.3396527554895012 0.7324767560095348 C 2.3289808606436324 0.7212667085324916 2.3190168082445552 0.7094035025429891 2.3098183501552594 0.6969558974392626 C 2.3052224495946323 0.6936842394130537 2.297822270725826 0.6885430625147247 2.291512644532422 0.6832460923770526 C 2.2898768155193174 0.6788059850557687 2.2882409865062128 0.674521670973828 2.286838847352123 0.6702373568918873 C 2.284895906703911 0.6700797381774339 2.2829831434849996 0.669660502403426 2.2811523941160927 0.6689910109771412 C 2.2467602446590575 0.6173565623916221 2.2198770409500197 0.5610985409712445 2.201308358952653 0.5019027617814545 C 2.1757511133495644 0.3989792877619507 2.183943458750778 0.29056725028588926 2.2246773448541477 0.19265318168500978 C 2.2217292610909665 0.20520659331323476 2.2195441557168323 0.21792702816980214 2.218134028801729 0.23074462870444568 C 2.2164981997886244 0.2435975709502678 2.2143170944378183 0.2562947199567466 2.213070748523072 0.26891397234355374 C 2.2118244026083254 0.2815332247303606 2.21252547218537 0.2939966838778244 2.2120580924673403 0.306771729503975 C 2.2115118708952552 0.3189823645489581 2.2118242264140195 0.331216289033895 2.2129928519034 0.3433831407496494 C 2.2121083587064017 0.28394524961359857 2.219474907251984 0.2246720600706794 2.2348818020311345 0.16725888367204844 C 2.238387149916358 0.15946922170488714 2.2411914282245373 0.15113428340002083 2.2448525693491046 0.14295513833449774 L 2.2697015910243605 0.09372447470201578 C 2.260509789903106 0.10813534934127061 2.2515516786408662 0.12285781045921224 2.2429051538573135 0.13750237495748235 C 2.248513710473672 0.12098829158709273 2.254278060329374 0.10470789807571829 2.259808720326061 0.08834960794467184 C 2.2653393803227484 0.07199131781362567 2.2736743186276147 0.0571909600760126 2.2807629110177348 0.040521083466279695 C 2.2860132722585615 0.02976714127539809 2.2919455040707604 0.01935971704347017 2.2985233403028706 0.009362435597620455 L 2.3182311850797976 -0.020783556215307697 C 2.3322525766206943 -0.04041350437256297 2.3479876937943676 -0.059030796474087155 2.3637228109680404 -0.07788177843462635 C 2.381093757154818 -0.09486324152304568 2.397685737144879 -0.11340263700489783 2.416770408964433 -0.12905985755889934 C 2.4355694249632394 -0.14526861147420356 2.455368197383553 -0.16028029568776556 2.4760497365345584 -0.17400620710944142 C 2.5597349093100474 -0.22923726803482994 2.656170789896824 -0.2621155743750377 2.756165980873806 -0.2695074628268819 C 2.7527385296082536 -0.26444418254822444 2.748843698624671 -0.2589914191712088 2.7447930744017452 -0.2539281388925519 C 2.656976671527711 -0.24524906704009225 2.574123125702141 -0.20913691302072376 2.507987350599934 -0.1507151178276174 C 2.5301099905866815 -0.1646586127488426 2.549817835363609 -0.17478517330615698 2.5689804038028345 -0.18569070006018804 C 2.589010998429424 -0.19703849314410082 2.6100885822309015 -0.20642949582792766 2.631920872497527 -0.21373348314198168 C 2.6325440454548996 -0.21155237779117542 2.6340240812286613 -0.20874809948299594 2.6305966299631085 -0.20594382117481652 C 2.646108788118749 -0.21366404059471802 2.6622053408341966 -0.22014954484414573 2.678736740920187 -0.22534007947305656 C 2.6875390589430834 -0.2283001510205795 2.6962634803463086 -0.2312602225681022 2.7051436949888763 -0.2339866042566099 C 2.7140239096314445 -0.23671298594511758 2.723449400611714 -0.23764774538117747 2.732485408493625 -0.23912778115493855 C 2.7222030546969673 -0.2276769780632063 2.7110638380839216 -0.21700514116819053 2.7008593809069357 -0.203529025964995 C 2.6916057795346706 -0.1973781851322585 2.681606499844718 -0.19243089753696752 2.6711028721923658 -0.18880656484705338 C 2.6654943155760074 -0.1866254594962474 2.6591846893826037 -0.1849117338634711 2.6533424429072303 -0.1823411454143069 C 2.6475001964318565 -0.1797705569651427 2.6412684668581248 -0.1767325887979483 2.635348323763079 -0.17361672401108239 C 2.5836357985399943 -0.15372260386439818 2.534558143205224 -0.12756180677763357 2.4892142652590667 -0.09572010433943356 C 2.444750585103823 -0.06388483224724856 2.4055815004856798 -0.02524150715418133 2.3731483019483104 0.018787926577889358 C 2.3090577866936557 0.09246364017060132 2.264394323523894 0.1809872668128264 2.243216740336 0.27631415121236036 C 2.253303720214925 0.1838258025474766 2.282283030952807 0.09439559658327118 2.328357745637112 0.013568853059888641 Z M 3.1003911432028213 -0.05178641084462343 C 3.1080298895808305 -0.04862426362792971 3.115830432329462 -0.04586807185674652 3.1237601291043164 -0.043529369159428344 C 3.1230395406877363 -0.0448114057710971 3.122464720122321 -0.0461700725620785 3.12204640347154 -0.04757999338235441 C 3.1154409125146314 -0.051199587451779494 3.107871340756734 -0.05266993592273761 3.1003911432028213 -0.05178641084462343 Z M 3.2328153966446243 0.06692803753496906 C 3.195504575324283 0.016236652930494144 3.144748212786504 -0.0229976645229511 3.086291855042253 -0.04633364746760832 C 3.085559586229281 -0.04575988334460934 3.084950281500592 -0.045044612576148335 3.084500232789805 -0.04423043873647353 C 3.1377200444423687 -0.012690617719481267 3.1873244943325107 0.02458455341966148 3.2324259135462663 0.06692803753496934 Z M 3.254159070434656 0.27288669994680803 L 3.2550938298707157 0.2713287675533752 L 3.253302207618268 0.2721077337500917 Z M 2.8904597531877285 0.9709183088244507 C 2.9619773036804524 0.9475702514433918 3.0304423010332266 0.9157437037816932 3.0943931034881063 0.8761181226840541 C 3.104774593272728 0.869521156521574 3.1138789060198286 0.8611029658945452 3.1212674372748235 0.8512691010087988 C 3.12927404100653 0.8395709082715926 3.1390803128066747 0.829212540740072 3.150322876412348 0.8205778328581691 C 3.1714770818178986 0.7986134730946964 3.1899867088365834 0.7742476928949594 3.205473683139876 0.7479781833241922 L 3.1845973890678736 0.7592731931765818 C 3.193274523370968 0.7515778708247803 3.2009667609508554 0.7428390703088542 3.2074989952513384 0.7332557222062511 C 3.2128009757664655 0.7242785769235617 3.2175611721307176 0.7149922922129713 3.2217540766512496 0.705446628983473 C 3.2299206739902555 0.6855328424253425 3.2407992068107 0.6668427366398547 3.254081173814984 0.6499063391575874 C 3.2496637903853878 0.6449970457569099 3.2482616371871127 0.6380757789058485 3.2504200326904167 0.6318343233937647 C 3.2665501405771638 0.6037065856981539 3.2777966648056305 0.573048613328282 3.2836818892902104 0.5411626580959655 C 3.2871418422627667 0.5246549398912591 3.2896129664369713 0.507955342840319 3.2910820681590174 0.4911530282667669 C 3.2932408703601275 0.476064930776701 3.29292514179768 0.46072578478447235 3.290147308722957 0.44573929899819653 C 3.290147308722957 0.43896229308676304 3.2795533684476132 0.4249409015458663 3.276982779998449 0.41208795930004427 C 3.2744121915492843 0.3965086353657148 3.2730100523951946 0.380929311431385 3.2715300166214334 0.36464891792001064 C 3.270604376914258 0.365468016724394 3.2695845501120675 0.36617405066437225 3.268492048454239 0.3667521266511451 C 3.268426835431329 0.3798474635979413 3.269811440940937 0.3929097797263189 3.2726205692968353 0.40570043648696563 C 3.2809494713088414 0.44716980404666673 3.2815305004101374 0.4898226221645784 3.2743342949296124 0.5315034772566819 C 3.2553519989586004 0.631010324554521 3.209564581423252 0.7234470404258829 3.14191004148781 0.7988446759697797 C 3.134120379520645 0.8066343379369448 3.127187580369868 0.8155924491991845 3.1198652981207333 0.8243168706024092 L 3.1087260815076876 0.8377150891859327 C 3.104714094052521 0.8418271377644172 3.100419291493722 0.8456534164077106 3.0958731392618652 0.8491658922776651 C 3.083113651387004 0.8617789564927897 3.068886692992149 0.8728153102476218 3.053497378160489 0.8820382657791007 C 3.0457077161933235 0.8867120629593997 3.037918054226159 0.891541653379042 3.0301283922589937 0.896449140418356 C 3.022338730291829 0.9013566274576698 3.0138479987476194 0.9042388023855207 3.005902543541111 0.9085231164674613 C 2.997957088334603 0.9128074305494019 2.989855839888752 0.9163127784346262 2.9825335576396164 0.9205191958968953 C 2.975211275390482 0.9247256133591643 2.966954233705287 0.927451995047672 2.96002143455451 0.9310352395525677 C 2.9466007666761764 0.938044890941187 2.933827691786867 0.9462300858702549 2.9218520909154018 0.9554947781294659 C 2.9139066357088947 0.9599348854507485 2.8980157252958785 0.9618044043228681 2.8904597531877285 0.9709183088244507 Z M 2.790596286768675 1.1422908721020777 C 2.79745118929978 1.1422908721020777 2.8045397816899 1.1413561126660183 2.8117062706996916 1.1406550430889735 C 2.8188727597094836 1.1399539735119282 2.8257276622405882 1.138707627597182 2.8328941512503802 1.137617074921779 C 2.8469934394109484 1.135591762810316 2.861326417430532 1.1333327608398385 2.875737292069787 1.1310737588693605 C 2.9040137650105953 1.1268673414070918 2.9322123413317325 1.1191555760595984 2.960177227793854 1.113858605921926 C 2.9874410446789312 1.1051341845187017 3.0151722412820376 1.0990582481843134 3.0410339190130253 1.0893990673450284 C 3.0668955967440126 1.079739886505744 3.0929130677143437 1.0728070873549673 3.116204156996166 1.06158997412225 C 3.17262358486078 1.0354795227512277 3.223159160999198 0.9981939665756882 3.2647530107100007 0.9519894302442403 C 3.282344904352148 0.9323170914806042 3.2963689239753915 0.9097257666363944 3.3061940123753173 0.8852320271856376 C 3.311646775752333 0.8669263215628004 3.3083751177261234 0.855241828612053 3.293652656608182 0.8540733793169782 C 3.2931747831924483 0.863056736779488 3.291309138858761 0.8719119781943144 3.288121996611495 0.8803245401463234 C 3.283532390289748 0.8904349574522942 3.277948262775615 0.9000636633061042 3.2714521200017623 0.909068392805162 C 3.263969319709807 0.9203898132064782 3.2554973414725645 0.9310254043473855 3.2461357186084765 0.9408502136311941 C 3.2358533648118186 0.9508988775688373 3.224246768480743 0.9614149212245099 3.212016999192294 0.9720088614998542 C 3.1553424628655433 1.015839892418207 3.091028150337597 1.0487762159181448 3.02233873029183 1.0691459462303996 C 2.8833711607976085 1.1098079816990003 2.757334430168881 1.094228657764671 2.790596286768675 1.1422129754824062 Z M 2.05657643960273 0.6583970707017969 C 2.0678714494551187 0.6807534005475601 2.0772190438157168 0.7029539371539798 2.0901498826812106 0.723986024465325 C 2.103080721546704 0.7450181117766702 2.1129735922450035 0.7687765807765229 2.1276181567432735 0.7921455666780176 C 2.113508366209688 0.7713203236433569 2.100507514650366 0.7497649117580011 2.0886698469074503 0.7275692689702223 C 2.076568294477095 0.7051894967287428 2.065850381530891 0.6820887523204192 2.05657643960273 0.6583970707017975 Z M 2.438269875993808 0.9282309612443876 C 2.4244042776922545 0.9216097485722975 2.409993403053 0.914365362942834 2.3960499081317748 0.9068872874543558 C 2.382651689548251 0.8979291761921163 2.3694871608237422 0.8890489615495484 2.356088942240219 0.8794676773299356 C 2.342933657293905 0.8698776426131206 2.3303935892888834 0.8594709471732688 2.318542771558484 0.8483090294612762 C 2.3058945480777706 0.8376339638580775 2.2941205697798344 0.8259641800583527 2.2833334994668992 0.8134113438483775 C 2.238782347887615 0.7637224519772933 2.2012983454184627 0.7081255504129073 2.171941333336441 0.6481926135248104 C 2.15996867055329 0.625280740171662 2.15096402202345 0.6009367775764544 2.1451448961693944 0.5757487572301778 L 2.1358751984284683 0.5376573102107415 C 2.1336940930776622 0.5245706781059045 2.1324477471629155 0.5116398392404109 2.1305003316711244 0.49870900037491706 C 2.1285529161793333 0.4857781615094229 2.1269170871662286 0.4733147023619594 2.125281258153124 0.4605396567358093 C 2.1236454291400193 0.44776461110965904 2.123100152802318 0.4353790485818666 2.1216201170285567 0.4229934860540747 C 2.120140081254795 0.4106079235262826 2.1178810792843175 0.39837815423783374 2.116401043510556 0.38607048832971314 C 2.1149210077367946 0.37376282242159276 2.1132072821040184 0.3619225362315024 2.110870383513869 0.3502380432807549 L 2.0990300973237783 0.3493811804643667 L 2.1023017553499876 0.36005301735938255 C 2.095992129156584 0.39650863536571423 2.0931878508484045 0.42634304069995566 2.0903835725402256 0.4576574818079584 C 2.0903835725402256 0.4561774460341971 2.0896825029631807 0.454152133922734 2.0892930198648223 0.45236051167028624 C 2.0892930198648223 0.45563216969649534 2.0899161928221957 0.4587480344833612 2.090227779300882 0.46163020941121213 C 2.0901698564522864 0.484360282940272 2.0931564775955653 0.5069957273946123 2.099107993943444 0.5289328888074945 C 2.102223858730316 0.5400721054205625 2.1073650356286446 0.5507439423155783 2.1114156598515703 0.5617273656892807 C 2.1160894570318693 0.5773066896236103 2.120919047451512 0.5934312898956416 2.1256707412514824 0.6094779935480013 L 2.1442101367333346 0.6552812059149307 C 2.147715484618559 0.6630708678820956 2.1504418663070664 0.6708605298492603 2.1541809040513056 0.6781828120983954 L 2.1660990868610677 0.699760175747442 C 2.1738887488282326 0.714171050386697 2.1816784107953975 0.7286598216456238 2.1901691423396072 0.7422138334684903 C 2.2074863838052097 0.7688087586130795 2.227170331686529 0.7937852116863297 2.248981090191702 0.8168387951139296 C 2.259073423291514 0.8282846404682692 2.2699815220327704 0.8389844700211483 2.281619773834123 0.848854305798978 C 2.2931484735455268 0.8583576933989187 2.3049887597356173 0.8677052877595163 2.3166732526863645 0.8760402260643828 C 2.330022183255736 0.8868535237920355 2.344278064380006 0.8964964415543387 2.3592827036467563 0.9048619753428927 C 2.3732677721309274 0.9136298291207855 2.3879333661665365 0.9212621897823013 2.4031385005218944 0.9276856849066853 C 2.4176272717808214 0.9343847941984477 2.432349732898763 0.9409281102508659 2.4473058838757193 0.9474714263032847 C 2.462262034852676 0.9540147423557029 2.4780750486460206 0.9587664361556737 2.4934206827213354 0.9651539589687487 C 2.477451875688647 0.9540147423557034 2.4548618559838693 0.9375785556049855 2.4381919793741362 0.9282309612443876 Z" fill="#911d80" transform="matrix(1,0,0,1,0,0)" fill-rule="nonzero"></path></g><g clip-path="url(#SvgjsClipPath6365182721f7-0813-4788-ab70-273c9e36f69a)"><path d=" M 2.2342586290737603 0.1545617346655735 C 2.2459892041051606 0.11518223019171231 2.2616471847936794 0.07708114384964881 2.2809966008767493 0.04083266994496698 C 2.2875552189530732 0.02593783157762941 2.295048215588843 0.0114721852946853 2.303430827342184 -0.0024778505924699656 C 2.3106711581689328 -0.0171419215908441 2.3188950372224086 -0.03129948553100459 2.328046159158425 -0.04485361169384727 C 2.376560417298182 -0.11367562347171314 2.4407828026158818 -0.16994030782281236 2.5153875294687404 -0.20898178934201095 C 2.5934294724644187 -0.24992517552410803 2.6781176637249344 -0.27669518926731096 2.765513575234404 -0.2880468583087341 C 2.770079746331549 -0.29962031158248964 2.768743720663158 -0.31269012790370143 2.761930330729508 -0.32310033716097564 C 2.6624174629776576 -0.31949733927639395 2.5654249662668884 -0.29082828638122166 2.47994456751814 -0.2397509541123117 C 2.3955135096074094 -0.18951270131615308 2.3203189727881695 -0.12517315719821898 2.2576276149752545 -0.049527408874145695 L 2.255680199483464 -0.04508730155286195 C 2.2514296369929716 -0.0344288430971762 2.2465659538167135 -0.024025242720153717 2.2411135316048654 -0.013928653684201875 C 2.23566076822785 -0.003490506648201608 2.2309090744278794 0.008505572781232318 2.2249110347131626 0.02003427249263623 C 2.2189129949984454 0.031562972204040196 2.213226541762415 0.043403258394130895 2.2071506054280268 0.05563302768257977 C 2.201074669093638 0.06786279697102837 2.1963229752936675 0.08102732569553722 2.1909481085363236 0.09395816456103101 C 2.1796912522669674 0.11989196938920388 2.1703954782618866 0.14663359376796542 2.1631390153135452 0.17395799296381326 C 2.157017056274617 0.2001226243078179 2.153082688322259 0.22675126038271942 2.151376625743126 0.2535683382682392 C 2.148302963804573 0.35113052798546196 2.16494115161954 0.44831026191109613 2.2002957028969217 0.5392931392238463 C 2.1963495111596614 0.5231589121344052 2.1934097399947228 0.5067950531720485 2.1914933848740255 0.49029616545038013 C 2.188787678862024 0.47417497857398117 2.186915670881013 0.4579249092943696 2.1858848282576666 0.44161077815559835 C 2.184950068821607 0.4249409015458657 2.184015309385547 0.4088163012738346 2.1832363431888306 0.39222432128377316 L 2.185495345159308 0.3437726238480078 C 2.1896933140570765 0.27819490574579053 2.2062376272409927 0.21399979915835887 2.2342586290737603 0.1545617346655735 Z" fill="#911d80" transform="matrix(1,0,0,1,0,0)" fill-rule="nonzero"></path></g><g clip-path="url(#SvgjsClipPath6365182721f7-0813-4788-ab70-273c9e36f69a)"><path d=" M 2.6964971702053235 0.8419994032678725 C 2.683629269142367 0.8401073780022342 2.6709585468189365 0.8370570189243712 2.658639413044902 0.8328854987662896 L 2.639321051366333 0.8277443218679609 L 2.6208595525041525 0.8204220396188259 C 2.5524309308220814 0.796640351946618 2.489031937708847 0.7603180121421605 2.433907665292196 0.7133141875703092 C 2.468997581000357 0.7533442981738713 2.509260255316344 0.7885250214050813 2.5536347697275197 0.8179293477893331 C 2.5979330022880687 0.8395771317755981 2.647551233946545 0.8479370192251451 2.6964971702053235 0.8419994032678725 Z" fill="#911d80" transform="matrix(1,0,0,1,0,0)" fill-rule="nonzero"></path></g><g clip-path="url(#SvgjsClipPath6365182721f7-0813-4788-ab70-273c9e36f69a)"><path d=" M 2.390597144754759 0.6711721163279472 C 2.3972622501405993 0.678875211935832 2.4045013873226364 0.6860622689942569 2.4122524050234775 0.6926715833573222 L 2.4337518720528526 0.713314187570309 C 2.38293152737294 0.6524103475266023 2.345555489483007 0.5814542755949329 2.3240734315551714 0.5050965231879921 C 2.282762968176891 0.3715016291723766 2.2930471602519864 0.22727278409759233 2.3528951808336815 0.10089096371180717 C 2.3564005287189054 0.0931013017446426 2.359750083364786 0.08601270935452265 2.3635670177286974 0.07861253048571593 L 2.3768094430728772 0.05789202965305751 C 2.291211718613703 0.16285476757273903 2.2493629609571473 0.2967707920737167 2.2599645135654045 0.43179580407697105 C 2.264972232143008 0.49475035528922373 2.2825324256688293 0.5560653598326268 2.311609972407707 0.612126478616836 C 2.3391094250009363 0.6632177733044572 2.3770961196469873 0.7079204943274832 2.4230800351578368 0.743304386143894 C 2.4262737965643746 0.7457191813537148 2.4300128343086134 0.7480560799438641 2.433362388954494 0.7510940481110585 C 2.4161253627219805 0.7324654359492576 2.39994927318084 0.7128824851060441 2.3849106915187286 0.6924378934983068 C 2.3706337838771363 0.6717200216968697 2.3576271150324644 0.6501549647524031 2.3459623816829054 0.6278615957905112 C 2.3340658081196444 0.6054344109660487 2.3236571289400763 0.582249078093561 2.3148037338142444 0.5584557076630705 C 2.3104415231126327 0.5466154214729809 2.3074035549454384 0.5343077555648603 2.3034308273421846 0.5219221930370682 L 2.2976664774864823 0.5038501772732459 L 2.2943169228406015 0.4847655054536918 C 2.3121698814645657 0.5532797308280789 2.3450596675518582 0.6169571241184438 2.3905971447547594 0.6711721163279473 Z" fill="#911d80" transform="matrix(1,0,0,1,0,0)" fill-rule="nonzero"></path></g><g clip-path="url(#SvgjsClipPath6365182721f7-0813-4788-ab70-273c9e36f69a)"><path d=" M 2.2249110347131626 0.192341595206323 C 2.228182692739372 0.18408455352112818 2.2316880406245962 0.17598330507527654 2.2348818020311336 0.1675704701507385 C 2.23695952962419 0.15752301579795797 2.2395596116394962 0.14759070249948814 2.242671463998298 0.13781396143616909 C 2.2391661161130743 0.14318882819351247 2.236985010762268 0.14910897128855782 2.2341028358344173 0.1545617346655732 C 2.231298557526238 0.16725888367205205 2.2281047961197 0.17980023943918766 2.2249110347131626 0.192341595206323 Z" fill="#911d80" transform="matrix(1,0,0,1,0,0)" fill-rule="nonzero"></path></g><g clip-path="url(#SvgjsClipPath6365182721f7-0813-4788-ab70-273c9e36f69a)"><path d=" M 2.089994089441867 0.45742379194894345 L 2.089994089441867 0.4613965195521975 C 2.0924867812713597 0.47814429278160187 2.0961479223959274 0.49496996263067794 2.0991858905631218 0.5117177358600823 L 2.1041712742221073 0.5368783440140249 C 2.10619658633357 0.5450574890795481 2.108922968022078 0.5532366341450712 2.1111819699925554 0.5614936758302659 C 2.119473048564982 0.5842213382755758 2.128937214961427 0.6065037300386348 2.1395363395530347 0.6282510788888669 C 2.149393985337358 0.6507184884303924 2.1605521033600037 0.6725925612906377 2.1729539893921728 0.6937621360327247 C 2.1375252045641546 0.617931367306739 2.109734826210287 0.5387614068131854 2.0899940894418667 0.457423791948942 Z" fill="#911d80" transform="matrix(1,0,0,1,0,0)" fill-rule="nonzero"></path></g><g clip-path="url(#SvgjsClipPath6365182721f7-0813-4788-ab70-273c9e36f69a)"><path d=" M 2.085631878740255 0.7826421790780763 C 2.090928848877927 0.7935477058321071 2.103314411405719 0.8138008269467357 2.1093903477401077 0.8246284570810948 L 2.1264497074481987 0.8395846080580515 C 2.12084115083184 0.8298475305990952 2.1153883874548245 0.8202662463794826 2.1100914173171526 0.8100617892024967 C 2.1100914173171526 0.8099059959631533 2.085086602402553 0.7826421790780763 2.085631878740255 0.7826421790780763 Z" fill="#911d80" transform="matrix(1,0,0,1,0,0)" fill-rule="nonzero"></path></g><g clip-path="url(#SvgjsClipPath6365182721f7-0813-4788-ab70-273c9e36f69a)"><path d=" M 2.6379968088319155 1.1493015678725262 C 2.444827782810006 1.115724628478799 2.2707916686119334 1.012179241223285 2.149117623772648 0.8584355900185902 C 2.1412305208551996 0.8525057331041651 2.133663893872565 0.8461612073867671 2.126449707448198 0.8394288148187076 C 2.1902012285312513 0.9504774276281195 2.289112921971817 1.0371382130698121 2.4075786078431785 1.0857379262204607 C 2.428766488393867 1.0957865901581036 2.4649884165411837 1.1007719738170891 2.485475227514827 1.1105090512760452 C 2.580237442647478 1.151039496865053 2.6834000670298703 1.1680372764265043 2.786156179447391 1.1600513013872136 C 2.7380733853763557 1.1610508196502516 2.689998373197178 1.1577137255293541 2.6425148127728697 1.1500805340692426 Z" fill="#911d80" transform="matrix(1,0,0,1,0,0)" fill-rule="nonzero"></path></g></g><g><path d=" M 0.2300745 0.8864219999999999 Q 0.1312695 0.8864219999999999 0.0748095 0.85325175 Q 0.0183495 0.8200814999999999 0.0183495 0.7593869999999999 Q 0.0183495 0.6972809999999999 0.0550485 0.6443497499999999 Q 0.0917475 0.5914185 0.15032475 0.5526022499999999 Q 0.208902 0.5137859999999999 0.27312525 0.4919077499999999 Q 0.3373485 0.47002949999999993 0.392397 0.47002949999999993 Q 0.420627 0.47002949999999993 0.420627 0.47849849999999994 Q 0.420627 0.4912019999999999 0.3909855 0.4912019999999999 Q 0.33876 0.4912019999999999 0.27735975 0.5166089999999999 Q 0.2159595 0.5420159999999999 0.1679685 0.5871839999999999 Q 0.129858 0.62106 0.11080275 0.6556417499999999 Q 0.0917475 0.6902234999999999 0.0917475 0.719865 Q 0.0917475 0.7636215 0.132681 0.7925572499999999 Q 0.1736145 0.8214929999999999 0.2554815 0.8214929999999999 Q 0.3034725 0.8214929999999999 0.352875 0.8137297499999999 Q 0.4022775 0.8059664999999999 0.44250525 0.796086 Q 0.482733 0.7862054999999999 0.5039055 0.7805595 Q 0.556131 0.7636215 0.60906225 0.7396259999999999 Q 0.6619935 0.7156305 0.7043385 0.6852832499999999 Q 0.7466834999999999 0.654936 0.7664445 0.623883 Q 0.7777364999999999 0.606945 0.78267675 0.5914185 Q 0.787617 0.5758919999999998 0.787617 0.561777 Q 0.787617 0.5222549999999999 0.7523295 0.49473074999999994 Q 0.717042 0.4672064999999999 0.6619935 0.4446224999999999 Q 0.606945 0.4220384999999999 0.544839 0.40157174999999995 Q 0.482733 0.3811049999999999 0.4276845 0.3585209999999999 Q 0.372636 0.33593699999999993 0.3373485 0.3070012499999999 Q 0.302061 0.27806549999999997 0.302061 0.2371319999999999 Q 0.302061 0.1905524999999999 0.33664275 0.15314774999999992 Q 0.3712245 0.11574299999999993 0.42556725 0.08680724999999989 Q 0.47991 0.057871499999999965 0.542016 0.038816249999999886 Q 0.604122 0.019760999999999918 0.660582 0.009880499999999959 Q 0.717042 -1.1102230246251565e-16 0.753741 -1.1102230246251565e-16 Q 0.909006 -1.1102230246251565e-16 0.909006 0.07763249999999988 Q 0.909006 0.10868549999999988 0.883599 0.14961899999999995 Q 0.8723069999999999 0.17079149999999987 0.8511345 0.18984674999999995 Q 0.829962 0.20890199999999992 0.81867 0.20890199999999992 Q 0.810201 0.20890199999999992 0.810201 0.19902149999999996 Q 0.810201 0.19478699999999993 0.8257275 0.1813777499999999 Q 0.841254 0.16796849999999997 0.8567805 0.14820749999999994 Q 0.8723069999999999 0.1284464999999999 0.8723069999999999 0.10868549999999988 Q 0.8723069999999999 0.07904399999999989 0.83913675 0.0635174999999999 Q 0.8059665 0.047990999999999895 0.7523295 0.047990999999999895 Q 0.7269225 0.047990999999999895 0.6789315 0.055754249999999894 Q 0.6309405 0.0635174999999999 0.5744805 0.0804554999999999 Q 0.5180205 0.09739349999999991 0.465795 0.1256234999999999 Q 0.3684015 0.17926049999999993 0.3684015 0.21737099999999998 Q 0.3684015 0.24560099999999996 0.42345 0.2710079999999999 Q 0.4643835 0.28935749999999993 0.5180205 0.30911849999999996 Q 0.5716575 0.3288794999999999 0.626706 0.35146349999999993 Q 0.6817545 0.3740474999999999 0.72903975 0.40227749999999995 Q 0.776325 0.43050749999999993 0.80526075 0.46508924999999995 Q 0.8341965 0.4996709999999999 0.8341965 0.5434275 Q 0.8341965 0.6027104999999999 0.7692675 0.6648164999999999 Q 0.7184535 0.7128074999999999 0.65140725 0.7537409999999999 Q 0.584361 0.7946745 0.51025725 0.8243159999999999 Q 0.43615349999999997 0.8539574999999999 0.364167 0.87018975 Q 0.2921805 0.8864219999999999 0.2300745 0.8864219999999999 M 0.9246220144628906 0.8567805 Q 0.9133300144628906 0.8567805 0.9175645144628906 0.8468999999999999 Q 0.9232105144628906 0.8370194999999999 0.9380312644628906 0.7967917499999999 Q 0.9528520144628906 0.7565639999999999 0.9719072644628906 0.7015155 Q 0.9909625144628906 0.6464669999999999 1.0093120144628906 0.595653 Q 0.9951970144628906 0.6168254999999999 0.9789647644628906 0.6365864999999999 Q 0.9627325144628907 0.6563474999999999 0.9514405144628906 0.669051 Q 0.9472060144628907 0.6732855 0.9457945144628906 0.6732855 Q 0.9415600144628906 0.6732855 0.9415600144628906 0.6648164999999999 Q 0.9415600144628906 0.6478784999999999 0.9500290144628906 0.6337634999999999 Q 0.9796705144628906 0.595653 0.9951970144628906 0.5737747499999999 Q 1.0107235144628905 0.5518964999999999 1.0213097644628906 0.5342527499999999 Q 1.0318960144628906 0.5166089999999999 1.0431880144628907 0.49402499999999994 Q 1.0460110144628907 0.47849849999999994 1.0537742644628907 0.45591449999999994 Q 1.0615375144628907 0.43333049999999995 1.0911790144628906 0.43333049999999995 Q 1.1349355144628905 0.43333049999999995 1.1349355144628905 0.4516799999999999 Q 1.1349355144628905 0.45732599999999995 1.1321125144628905 0.46367774999999994 Q 1.1292895144628905 0.47002949999999993 1.1264665144628907 0.47708699999999993 Q 1.1095285144628906 0.5151975 1.0897675144628907 0.5646 Q 1.0700065144628905 0.6140024999999999 1.0537742644628907 0.657759 Q 1.0375420144628906 0.7015155 1.0290730144628906 0.7255109999999999 Q 1.0445995144628906 0.7057499999999999 1.0756525144628906 0.6697567499999999 Q 1.1067055144628906 0.6337634999999999 1.1469332644628907 0.5907127499999999 Q 1.1871610144628906 0.5476619999999999 1.2302117644628905 0.5088457499999999 Q 1.2732625144628906 0.47002949999999993 1.3113730144628906 0.4446224999999999 Q 1.3494835144628907 0.4192154999999999 1.3763020144628906 0.4192154999999999 Q 1.4087665144628905 0.4192154999999999 1.4087665144628905 0.45591449999999994 Q 1.4087665144628905 0.4841444999999999 1.3861825144628905 0.5293124999999999 Q 1.3763020144628906 0.5504849999999999 1.3593640144628907 0.5864782499999999 Q 1.3424260144628906 0.6224715 1.3325455144628906 0.6408209999999999 Q 1.3579525144628906 0.6182369999999999 1.3904170144628907 0.5907127499999999 Q 1.4228815144628906 0.5631884999999999 1.4588747644628905 0.5391929999999999 Q 1.4948680144628907 0.5151975 1.5259210144628907 0.5039054999999999 Q 1.5329785144628905 0.5010824999999999 1.5541510144628905 0.49473074999999994 Q 1.5753235144628905 0.48837899999999995 1.5908500144628905 0.48837899999999995 Q 1.6120225144628906 0.48837899999999995 1.6120225144628906 0.502494 Q 1.6120225144628906 0.5123745 1.6021420144628906 0.5236664999999999 Q 1.5781465144628906 0.5603654999999998 1.5590912644628907 0.6020047499999999 Q 1.5400360144628906 0.6436439999999999 1.5287440144628905 0.6803429999999999 Q 1.5174520144628905 0.717042 1.5146290144628907 0.7396259999999999 Q 1.5132175144628905 0.7452719999999999 1.5132175144628905 0.7502122499999999 Q 1.5132175144628905 0.7551524999999999 1.5132175144628905 0.7607984999999999 Q 1.5132175144628905 0.8172584999999999 1.5499165144628906 0.8172584999999999 Q 1.5725005144628907 0.8172584999999999 1.6077880144628907 0.7925572499999999 Q 1.6430755144628906 0.7678559999999999 1.6797745144628906 0.7318627499999999 Q 1.7164735144628906 0.6958694999999999 1.7468207644628906 0.66269925 Q 1.7771680144628905 0.6295289999999999 1.7884600144628906 0.6125909999999999 Q 1.7926945144628905 0.6083565 1.7969290144628904 0.6083565 Q 1.8025750144628905 0.6083565 1.8061037644628906 0.6125909999999999 Q 1.8096325144628906 0.6168254999999999 1.8068095144628906 0.623883 Q 1.7941060144628906 0.6478784999999999 1.7637587644628905 0.6838717499999999 Q 1.7334115144628905 0.719865 1.6960067644628904 0.75585825 Q 1.6586020144628906 0.7918514999999999 1.6233145144628907 0.8172584999999999 Q 1.6049650144628906 0.8313734999999999 1.5774407644628905 0.8419597499999999 Q 1.5499165144628906 0.8525459999999999 1.5216865144628906 0.8525459999999999 Q 1.4962795144628906 0.8525459999999999 1.4758127644628907 0.841254 Q 1.4553460144628905 0.829962 1.4454655144628905 0.7989089999999999 Q 1.4412310144628906 0.7862054999999999 1.4412310144628906 0.7664445 Q 1.4412310144628906 0.7353915 1.4497000144628907 0.6958694999999999 Q 1.4581690144628907 0.6563474999999999 1.4680495144628907 0.6295289999999999 Q 1.4751070144628906 0.6097679999999999 1.4871047644628907 0.58506675 Q 1.4991025144628907 0.5603654999999998 1.5089830144628906 0.5434275 Q 1.4652265144628907 0.5603654999999998 1.4242930144628905 0.5942414999999999 Q 1.3833595144628905 0.6281174999999999 1.3501892644628906 0.66269925 Q 1.3170190144628906 0.6972809999999999 1.2944350144628907 0.719865 Q 1.2887890144628906 0.7353915 1.2725567644628906 0.7452719999999999 Q 1.2563245144628907 0.7551524999999999 1.2422095144628906 0.7551524999999999 Q 1.2210370144628906 0.7551524999999999 1.2210370144628906 0.7368029999999999 Q 1.2210370144628906 0.7297454999999999 1.2252715144628907 0.719865 Q 1.2393865144628906 0.685989 1.2570302644628906 0.64999575 Q 1.2746740144628905 0.6140024999999999 1.2894947644628907 0.5843609999999999 Q 1.3043155144628906 0.5547194999999999 1.3099615144628907 0.5434275 Q 1.3212535144628905 0.5236664999999999 1.3212535144628905 0.5123745 Q 1.3212535144628905 0.5010824999999999 1.3113730144628906 0.5010824999999999 Q 1.3014925144628906 0.5010824999999999 1.2789085144628907 0.5137859999999999 Q 1.2563245144628907 0.5264894999999999 1.2196255144628907 0.558954 Q 1.1899840144628906 0.5857724999999999 1.1546965144628907 0.62882325 Q 1.1194090144628905 0.6718739999999999 1.0869445144628906 0.717042 Q 1.0544800144628905 0.7622099999999999 1.0297787644628906 0.7946745 Q 1.0050775144628905 0.827139 0.9951970144628906 0.8327849999999999 Q 0.9867280144628906 0.8370194999999999 0.9620267644628906 0.8468999999999999 Q 0.9373255144628906 0.8567805 0.9246220144628906 0.8567805 M 2.0525062318066407 0.34722899999999995 Q 2.0341567318066405 0.34722899999999995 2.0143957318066406 0.34370024999999993 Q 1.9946347318066406 0.3401714999999999 1.9946347318066406 0.3175874999999999 Q 1.9946347318066406 0.3133529999999999 2.0136899818066407 0.2978264999999999 Q 2.0327452318066404 0.2822999999999999 2.0532119818066406 0.26606774999999994 Q 2.0736787318066403 0.24983549999999988 2.0779132318066407 0.24701249999999997 Q 2.1019087318066405 0.22725149999999994 2.1075547318066405 0.22725149999999994 Q 2.1146122318066407 0.22725149999999994 2.1075547318066405 0.24560099999999996 Q 2.1004972318066404 0.2639505 2.1004972318066404 0.27806549999999997 Q 2.1004972318066404 0.2851229999999999 2.0920282318066405 0.3020609999999999 Q 2.0835592318066407 0.3189989999999999 2.0722672318066406 0.3331139999999999 Q 2.0609752318066406 0.34722899999999995 2.0525062318066407 0.34722899999999995 M 1.8986527318066404 0.8525459999999999 Q 1.8732457318066404 0.8525459999999999 1.8527789818066405 0.841254 Q 1.8323122318066405 0.829962 1.8224317318066405 0.7989089999999999 Q 1.8210202318066404 0.7946745 1.8203144818066406 0.7904399999999999 Q 1.8196087318066405 0.7862054999999999 1.8196087318066405 0.7805595 Q 1.8196087318066405 0.7523294999999999 1.8323122318066405 0.7099844999999999 Q 1.8450157318066405 0.6676394999999999 1.8633652318066405 0.6281174999999999 Q 1.8548962318066404 0.6394095 1.8436042318066406 0.6556417499999999 Q 1.8323122318066405 0.6718739999999999 1.8111397318066405 0.6972809999999999 Q 1.8054937318066404 0.7029269999999999 1.7984362318066405 0.7029269999999999 Q 1.7885557318066405 0.7029269999999999 1.7885557318066405 0.6916349999999999 Q 1.7885557318066405 0.6831659999999999 1.7942017318066406 0.6775199999999999 Q 1.8309007318066406 0.6309404999999999 1.8598364818066404 0.5942414999999999 Q 1.8887722318066404 0.5575424999999999 1.9028872318066405 0.5321354999999999 Q 1.9028872318066405 0.530724 1.9021814818066405 0.5300182499999999 Q 1.9014757318066404 0.5293124999999999 1.9014757318066404 0.527901 Q 1.9014757318066404 0.5236664999999999 1.9057102318066406 0.5151975 Q 1.9170022318066404 0.4813214999999999 1.9289999818066406 0.4580317499999999 Q 1.9409977318066405 0.4347419999999999 1.9551127318066406 0.43191899999999994 Q 1.9579357318066406 0.43191899999999994 1.9607587318066404 0.43121324999999994 Q 1.9635817318066404 0.43050749999999993 1.9664047318066404 0.43050749999999993 Q 1.9819312318066404 0.43050749999999993 1.9946347318066406 0.4375649999999999 Q 2.0073382318066404 0.4446224999999999 2.0073382318066404 0.4587374999999999 Q 2.0073382318066404 0.47144099999999994 1.9981634818066405 0.4897904999999999 Q 1.9889887318066406 0.5081399999999999 1.9748737318066405 0.5349584999999999 Q 1.9438207318066405 0.5998874999999999 1.9191194818066406 0.6528187499999999 Q 1.8944182318066405 0.7057499999999999 1.8915952318066405 0.7396259999999999 Q 1.8901837318066406 0.7452719999999999 1.8901837318066406 0.7502122499999999 Q 1.8901837318066406 0.7551524999999999 1.8901837318066406 0.7607984999999999 Q 1.8901837318066406 0.8172584999999999 1.9268827318066406 0.8172584999999999 Q 1.9494667318066405 0.8172584999999999 1.9847542318066405 0.7925572499999999 Q 2.0200417318066406 0.7678559999999999 2.0567407318066406 0.7318627499999999 Q 2.0934397318066407 0.6958694999999999 2.1237869818066404 0.66269925 Q 2.1541342318066405 0.6295289999999999 2.1654262318066406 0.6125909999999999 Q 2.1696607318066405 0.6083565 2.1738952318066405 0.6083565 Q 2.1795412318066405 0.6083565 2.1830699818066406 0.6125909999999999 Q 2.1865987318066407 0.6168254999999999 2.1837757318066404 0.623883 Q 2.1710722318066407 0.6478784999999999 2.1407249818066405 0.6838717499999999 Q 2.1103777318066403 0.719865 2.0729729818066405 0.75585825 Q 2.0355682318066406 0.7918514999999999 2.0002807318066407 0.8172584999999999 Q 1.9819312318066404 0.8313734999999999 1.9544069818066405 0.8419597499999999 Q 1.9268827318066406 0.8525459999999999 1.8986527318066404 0.8525459999999999 M 2.2756265304492187 0.8525459999999999 Q 2.2502195304492187 0.8525459999999999 2.2297527804492185 0.841254 Q 2.209286030449219 0.829962 2.1994055304492184 0.7989089999999999 Q 2.1979940304492187 0.7946745 2.1972882804492184 0.7904399999999999 Q 2.1965825304492186 0.7862054999999999 2.1965825304492186 0.7805595 Q 2.1965825304492186 0.7523294999999999 2.209286030449219 0.7099844999999999 Q 2.2219895304492185 0.6676394999999999 2.240339030449219 0.6281174999999999 Q 2.2318700304492185 0.6394095 2.2205780304492184 0.6556417499999999 Q 2.209286030449219 0.6718739999999999 2.1881135304492187 0.6972809999999999 Q 2.1824675304492187 0.7029269999999999 2.1754100304492185 0.7029269999999999 Q 2.1655295304492186 0.7029269999999999 2.1655295304492186 0.6916349999999999 Q 2.1655295304492186 0.6831659999999999 2.1711755304492186 0.6775199999999999 Q 2.2078745304492187 0.6309404999999999 2.2368102804492187 0.5942414999999999 Q 2.2657460304492187 0.5575424999999999 2.2798610304492186 0.5321354999999999 Q 2.2798610304492186 0.5293124999999999 2.2883300304492185 0.5144917499999999 Q 2.2967990304492187 0.4996709999999999 2.3109140304492186 0.47285249999999995 Q 2.2996220304492185 0.4742639999999999 2.2918587804492185 0.4749697499999999 Q 2.2840955304492185 0.4756754999999999 2.2784495304492185 0.4756754999999999 Q 2.2685690304492185 0.4756754999999999 2.2615115304492184 0.4672064999999999 Q 2.2544540304492187 0.4587374999999999 2.2601000304492187 0.44603399999999993 Q 2.2671575304492184 0.4262729999999999 2.2911530304492187 0.42344999999999994 Q 2.3151485304492185 0.4206269999999999 2.3334980304492188 0.4192154999999999 Q 2.3349095304492185 0.41639249999999994 2.3391440304492184 0.41639249999999994 Q 2.3560820304492185 0.38533949999999995 2.3716085304492185 0.3556979999999999 Q 2.3871350304492185 0.32605649999999997 2.3977212804492187 0.30629549999999994 Q 2.4083075304492185 0.2865344999999999 2.4083075304492185 0.2851229999999999 Q 2.4365375304492187 0.23995499999999992 2.4450065304492186 0.22513424999999998 Q 2.4534755304492184 0.21031349999999993 2.4675905304492187 0.2074904999999999 Q 2.4831170304492187 0.2060789999999999 2.5007607804492187 0.20890199999999992 Q 2.5184045304492186 0.21172499999999994 2.5240505304492187 0.2216054999999999 Q 2.5282850304492186 0.22725149999999994 2.5282850304492186 0.2357204999999999 Q 2.5282850304492186 0.24842399999999998 2.5226390304492186 0.2604217499999999 Q 2.5169930304492185 0.2724194999999999 2.5113470304492185 0.279477 Q 2.5057010304492184 0.28935749999999993 2.4965262804492188 0.2928862499999999 Q 2.4873515304492186 0.2964149999999999 2.4802940304492185 0.31053 Q 2.4661790304492186 0.33734849999999994 2.4492410304492185 0.36840149999999994 Q 2.4323030304492184 0.39945449999999993 2.4139535304492186 0.4276844999999999 L 2.4308915304492187 0.4262729999999999 Q 2.4647675304492185 0.42344999999999994 2.4951147804492186 0.4192154999999999 Q 2.5254620304492184 0.41498099999999993 2.5649840304492186 0.41639249999999994 Q 2.5720415304492183 0.41639249999999994 2.5798047804492183 0.4185097499999999 Q 2.5875680304492183 0.4206269999999999 2.5875680304492183 0.42486149999999995 Q 2.5875680304492183 0.43050749999999993 2.5508690304492188 0.44038799999999995 Q 2.5367540304492184 0.44603399999999993 2.4894687804492186 0.4523857499999999 Q 2.4421835304492188 0.4587374999999999 2.3927810304492185 0.46438349999999995 Q 2.3786660304492186 0.4912019999999999 2.3673740304492186 0.5088457499999999 Q 2.3560820304492185 0.5264894999999999 2.3518475304492186 0.5349584999999999 Q 2.3207945304492186 0.5998874999999999 2.2960932804492185 0.6528187499999999 Q 2.271392030449219 0.7057499999999999 2.2685690304492185 0.7396259999999999 Q 2.2671575304492184 0.7452719999999999 2.2671575304492184 0.7502122499999999 Q 2.2671575304492184 0.7551524999999999 2.2671575304492184 0.7607984999999999 Q 2.2671575304492184 0.8172584999999999 2.3038565304492185 0.8172584999999999 Q 2.3264405304492186 0.8172584999999999 2.3617280304492185 0.7925572499999999 Q 2.3970155304492184 0.7678559999999999 2.4337145304492185 0.7318627499999999 Q 2.4704135304492185 0.6958694999999999 2.5007607804492187 0.66269925 Q 2.5311080304492184 0.6295289999999999 2.5424000304492185 0.6125909999999999 Q 2.546634530449219 0.6083565 2.5508690304492188 0.6083565 Q 2.5565150304492184 0.6083565 2.5600437804492184 0.6125909999999999 Q 2.5635725304492185 0.6168254999999999 2.5607495304492187 0.623883 Q 2.5480460304492185 0.6478784999999999 2.5176987804492184 0.6838717499999999 Q 2.4873515304492186 0.719865 2.4499467804492188 0.75585825 Q 2.4125420304492184 0.7918514999999999 2.3772545304492185 0.8172584999999999 Q 2.3589050304492187 0.8313734999999999 2.3313807804492184 0.8419597499999999 Q 2.3038565304492185 0.8525459999999999 2.2756265304492187 0.8525459999999999" fill="#ffffff" fill-rule="nonzero"></path></g><g></g></g><defs><clipPath id="SvgjsClipPath6370"><path d=" M 1.9690206390917968 -0.32310033716097564 h 1.560970361600167 v 1.4846316743219512 h -1.560970361600167 Z"></path></clipPath><clipPath id="SvgjsClipPath6365182721f7-0813-4788-ab70-273c9e36f69a"><path d=" M 1.9690206390917968 -0.32310033716097564 L 3.5299910006919637 -0.32310033716097564 L 3.5299910006919637 1.1615313371609757 L 1.9690206390917968 1.1615313371609757 Z"></path></clipPath></defs></svg>